<?xml version="1.0" standalone="no"?>
<!DOCTYPE svg PUBLIC "-//W3C//DTD SVG 20010904//EN"
 "http://www.w3.org/TR/2001/REC-SVG-20010904/DTD/svg10.dtd">
<svg version="1.0" xmlns="http://www.w3.org/2000/svg"
 width="992.000000pt" height="992.000000pt" viewBox="0 0 992.000000 992.000000"
 preserveAspectRatio="xMidYMid meet">
<metadata>
Created by potrace 1.11, written by Peter Selinger 2001-2013
</metadata>
<g transform="translate(0.000000,992.000000) scale(0.100000,-0.100000)"
fill="#000000" stroke="none">
<path d="M4880 9906 c-40 -10 -74 -26 -132 -61 -80 -48 -274 -161 -283 -164
-5 -2 -12 -7 -15 -10 -3 -3 -14 -11 -25 -17 -48 -26 -113 -63 -145 -82 -19
-12 -66 -40 -105 -62 -38 -23 -77 -45 -85 -50 -28 -17 -164 -97 -260 -152 -52
-31 -282 -165 -510 -298 -228 -134 -428 -250 -445 -259 -16 -9 -32 -19 -35
-22 -3 -3 -17 -12 -32 -20 -28 -14 -97 -54 -636 -371 -167 -98 -308 -178 -313
-178 -5 0 -9 -4 -9 -10 0 -5 -4 -10 -9 -10 -5 0 -98 -52 -207 -117 -110 -64
-217 -126 -239 -138 -22 -13 -103 -60 -180 -106 -77 -45 -164 -96 -193 -113
-65 -38 -61 -35 -205 -120 -193 -114 -194 -119 -191 -536 1 -162 5 -866 9
-1565 14 -2920 14 -2876 30 -2930 19 -67 54 -105 153 -165 46 -27 85 -50 87
-50 2 0 142 -79 312 -176 169 -97 328 -188 353 -202 25 -14 213 -121 419 -239
205 -117 377 -213 382 -213 5 0 9 -4 9 -10 0 -5 5 -10 10 -10 6 0 73 -35 148
-79 75 -43 153 -87 172 -98 19 -11 126 -72 238 -137 112 -64 205 -116 207
-116 1 0 33 -18 69 -40 36 -22 69 -40 73 -40 3 0 14 -6 22 -14 9 -7 48 -30 86
-51 39 -21 75 -41 80 -45 6 -4 35 -21 65 -37 30 -17 84 -47 120 -68 36 -21 90
-51 120 -68 30 -16 66 -37 80 -45 14 -9 97 -57 185 -107 88 -50 169 -96 180
-103 60 -35 499 -284 550 -312 33 -18 67 -38 75 -45 8 -6 40 -17 71 -24 88
-19 130 -4 312 107 37 23 69 42 71 42 2 0 34 18 70 40 36 22 69 40 73 40 3 0
14 6 22 14 9 8 39 26 66 40 28 15 79 45 114 67 34 21 65 39 66 39 2 0 25 13
52 29 122 74 254 151 258 151 3 0 29 16 59 35 30 19 60 35 66 35 5 0 10 4 10
9 0 5 8 11 18 14 9 3 38 19 64 34 62 38 176 105 210 123 14 8 75 44 135 79 59
35 124 72 143 83 19 11 40 24 45 28 6 4 30 19 55 32 25 14 242 141 484 282
241 141 457 267 480 280 37 21 229 133 266 156 79 48 154 90 161 90 4 0 14 6
21 13 7 7 45 30 83 52 39 21 81 46 95 55 14 10 75 46 135 80 106 61 173 101
445 261 69 41 138 80 154 88 42 22 93 78 108 120 14 40 15 544 3 2726 -11
2074 -11 2096 -25 2148 -14 52 -72 120 -125 147 -30 15 -166 92 -195 110 -8 5
-57 33 -109 62 -51 29 -114 65 -140 80 -25 16 -52 31 -60 35 -8 3 -80 44 -160
91 -80 46 -175 100 -211 120 -36 20 -101 57 -145 82 -331 192 -646 370 -654
370 -5 0 -11 3 -13 8 -1 4 -33 23 -70 42 -37 19 -68 38 -68 43 0 4 -4 7 -9 7
-6 0 -86 43 -178 97 -92 53 -190 108 -218 123 -27 16 -122 69 -210 120 -88 51
-184 105 -213 121 -28 16 -70 40 -92 54 -22 14 -41 25 -43 25 -2 0 -75 41
-163 91 -87 50 -179 103 -204 117 -25 14 -182 103 -349 199 -167 95 -307 173
-312 173 -5 0 -9 5 -9 10 0 6 -4 10 -9 10 -5 0 -48 23 -96 50 -48 28 -90 50
-95 50 -5 0 -10 3 -12 8 -1 4 -19 15 -38 24 -31 15 -56 23 -110 33 -8 1 -35
-3 -60 -9z m306 -967 c126 -72 247 -140 269 -151 22 -11 42 -24 45 -27 3 -4
16 -12 30 -19 14 -6 32 -16 40 -22 8 -5 44 -26 80 -46 93 -52 205 -115 280
-159 36 -20 94 -53 130 -72 36 -20 72 -42 81 -49 8 -8 18 -14 21 -14 3 0 113
-61 244 -136 132 -75 264 -150 294 -167 30 -17 67 -38 82 -49 14 -10 29 -18
32 -18 4 0 103 -55 151 -85 11 -7 24 -12 29 -13 5 0 12 -4 15 -9 3 -4 20 -15
36 -24 51 -28 1460 -831 1464 -835 2 -2 5 -250 7 -551 1 -301 5 -1074 9 -1718
3 -643 7 -1322 8 -1509 2 -329 2 -339 -18 -353 -23 -16 -164 -100 -240 -142
-27 -15 -108 -62 -178 -104 -71 -43 -130 -77 -133 -77 -3 0 -17 -8 -32 -19
-15 -10 -113 -68 -217 -129 -105 -60 -206 -119 -225 -131 -19 -11 -53 -31 -75
-43 -22 -12 -48 -27 -57 -33 -14 -8 -207 -121 -345 -202 -106 -62 -126 -73
-134 -73 -5 0 -9 -4 -9 -9 0 -5 -8 -11 -17 -14 -10 -4 -36 -17 -58 -30 -82
-50 -312 -184 -355 -209 -25 -14 -189 -110 -365 -213 -176 -104 -360 -212
-410 -240 -49 -29 -222 -129 -382 -224 -161 -94 -299 -171 -305 -171 -7 0 -49
21 -93 48 -45 26 -94 54 -110 62 -17 8 -32 17 -35 20 -3 3 -14 10 -25 16 -87
46 -111 60 -115 64 -3 3 -16 11 -30 18 -14 7 -34 18 -45 25 -11 7 -122 70
-245 140 -124 71 -232 132 -240 137 -11 7 -613 350 -900 513 -106 60 -159 90
-190 109 -19 11 -55 32 -80 45 -25 13 -63 34 -85 48 -22 14 -47 28 -55 32 -8
4 -43 24 -78 45 -34 21 -64 38 -67 38 -2 0 -91 50 -197 111 -106 61 -222 127
-258 147 -36 19 -72 41 -81 48 -8 8 -18 14 -21 14 -4 0 -82 43 -175 96 -92 53
-193 110 -223 126 -30 17 -66 38 -80 48 -14 9 -45 27 -70 39 -25 12 -53 28
-62 35 -17 12 -18 82 -23 1112 -3 604 -8 1410 -10 1789 -2 380 -4 811 -5 960
l-1 269 252 148 c138 81 253 148 255 148 1 0 45 25 96 55 51 31 100 60 108 65
8 4 125 73 259 152 135 79 249 145 255 147 6 2 18 9 26 16 8 7 38 25 65 40 28
15 114 65 192 111 78 46 146 84 151 84 6 0 12 4 14 8 2 4 26 21 53 36 52 30
207 120 405 237 63 37 210 122 325 190 116 67 275 161 355 207 80 47 159 92
175 101 17 9 32 19 33 24 2 4 7 7 12 7 4 0 59 31 121 68 63 37 121 71 129 75
8 3 71 40 140 81 69 42 132 73 141 70 10 -3 120 -63 245 -135z"/>
<path d="M4868 8176 c-25 -7 -57 -20 -71 -29 -14 -9 -41 -25 -59 -35 -18 -11
-109 -64 -203 -119 -93 -54 -177 -102 -185 -106 -8 -4 -28 -16 -45 -26 -16
-10 -82 -49 -145 -86 -177 -104 -399 -234 -460 -270 -30 -17 -160 -93 -288
-168 -129 -76 -238 -137 -243 -137 -5 0 -9 -4 -9 -9 0 -5 -8 -11 -17 -15 -10
-3 -36 -16 -58 -29 -22 -13 -133 -79 -248 -146 -114 -67 -222 -130 -240 -140
-51 -30 -191 -111 -207 -121 -8 -5 -40 -24 -70 -42 -84 -49 -105 -62 -121 -73
-30 -20 -66 -81 -76 -128 -7 -31 -9 -267 -7 -675 2 -345 5 -1018 8 -1497 3
-588 8 -886 16 -920 22 -98 38 -113 250 -234 69 -39 132 -76 140 -81 8 -5 31
-18 50 -28 19 -10 127 -71 239 -135 112 -64 207 -117 212 -117 5 0 9 -4 9 -10
0 -5 4 -10 10 -10 5 0 50 -24 100 -52 49 -29 103 -60 118 -68 28 -15 234 -132
302 -172 41 -24 893 -509 953 -543 23 -13 109 -61 190 -108 234 -135 263 -135
469 -12 9 6 29 17 45 26 15 9 117 68 227 132 109 65 200 117 202 117 2 0 28
16 58 35 30 19 60 35 66 35 5 0 10 4 10 9 0 5 12 14 28 20 15 6 44 21 64 33
36 23 96 58 293 173 55 32 112 65 127 74 38 23 138 81 174 102 17 9 64 37 105
61 41 25 112 67 159 94 46 27 92 54 102 59 731 426 842 493 872 523 48 47 58
109 58 341 0 316 -13 2511 -16 2691 -3 190 -15 234 -82 287 -21 16 -140 88
-264 158 -288 164 -236 134 -605 345 -176 101 -342 196 -370 212 -27 16 -58
32 -67 35 -10 3 -18 9 -18 14 0 5 -5 9 -11 9 -5 0 -51 24 -102 53 -51 29 -103
60 -117 68 -14 8 -33 20 -42 28 -10 8 -18 11 -18 7 0 -4 -20 7 -44 24 -25 16
-47 30 -50 30 -3 0 -29 14 -58 31 -29 18 -73 43 -98 57 -25 14 -207 117 -404
230 -427 244 -447 253 -538 228z m159 -688 c48 -28 102 -58 118 -67 31 -16
238 -135 265 -151 8 -6 92 -53 185 -106 94 -53 193 -110 220 -126 28 -16 62
-34 78 -41 15 -6 27 -15 27 -19 0 -4 4 -8 9 -8 9 0 106 -53 161 -88 14 -9 28
-15 33 -14 4 1 7 -3 7 -8 0 -6 4 -10 9 -10 5 0 80 -40 166 -90 86 -49 159 -90
161 -90 3 0 21 -11 42 -24 49 -31 186 -110 192 -111 3 0 16 -8 30 -16 14 -9
53 -32 87 -51 l62 -34 -45 -27 c-25 -15 -49 -27 -54 -27 -4 0 -10 -4 -12 -8
-1 -5 -39 -29 -83 -54 -44 -25 -129 -74 -190 -110 -306 -180 -438 -258 -441
-258 -2 0 -28 -16 -58 -35 -30 -19 -58 -35 -61 -35 -3 0 -18 -8 -33 -19 -15
-10 -83 -51 -152 -91 -69 -41 -156 -92 -195 -115 -38 -23 -90 -53 -115 -67
-25 -14 -87 -51 -138 -82 -51 -31 -94 -56 -96 -56 -2 0 -44 -25 -94 -55 -50
-30 -96 -55 -102 -55 -5 0 -10 -4 -10 -8 0 -5 -10 -14 -22 -19 -25 -11 -31 -9
-239 112 -61 36 -113 65 -115 65 -2 0 -48 25 -102 56 -53 31 -110 64 -127 74
-16 9 -50 28 -75 42 -113 64 -445 252 -645 366 -121 69 -233 133 -250 142
-108 60 -172 96 -186 105 -9 6 -43 25 -75 43 -32 17 -66 36 -74 41 -8 5 -32
19 -53 31 -35 21 -37 23 -20 35 33 23 296 175 302 175 4 0 12 5 19 12 7 7 37
26 67 43 45 25 188 108 554 323 31 18 63 36 71 39 8 4 17 9 20 13 3 3 43 28
90 54 126 72 145 83 189 110 22 15 43 26 46 26 2 0 28 15 57 33 29 19 60 37
68 40 8 4 29 16 45 26 29 18 179 106 240 141 17 9 53 31 80 48 28 17 55 32 62
32 6 0 51 -23 100 -52z m2144 -1595 c0 -16 3 -350 5 -743 2 -393 6 -882 7
-1087 2 -347 1 -373 -15 -388 -10 -8 -20 -15 -23 -15 -3 0 -173 -98 -257 -149
-87 -53 -192 -111 -199 -111 -5 0 -9 -4 -9 -10 0 -5 -4 -10 -10 -10 -7 0 -209
-115 -280 -160 -8 -5 -53 -31 -100 -58 -47 -27 -123 -72 -170 -99 -47 -28
-151 -89 -232 -137 -81 -47 -152 -86 -157 -86 -5 0 -11 -4 -13 -8 -4 -10 -384
-232 -398 -232 -5 0 -10 -4 -10 -8 0 -4 -13 -12 -28 -18 l-29 -11 -2 1118 -1
1117 67 38 c79 45 60 34 255 149 84 49 162 95 173 101 11 6 38 21 60 35 23 13
50 29 60 36 118 70 867 510 890 522 16 9 32 19 35 22 3 4 28 19 55 33 28 15
64 36 80 47 17 10 39 23 50 29 11 5 56 32 100 59 44 27 83 50 88 50 4 1 7 -11
8 -26z m-4308 -79 c215 -122 260 -148 279 -159 9 -5 45 -25 80 -44 35 -18 70
-40 79 -47 8 -8 18 -14 22 -14 3 0 32 -15 64 -34 32 -18 78 -44 103 -58 39
-22 198 -112 300 -171 19 -11 55 -31 80 -45 88 -49 486 -274 530 -300 25 -15
65 -38 91 -52 166 -92 169 -94 170 -120 2 -71 4 -2220 2 -2220 -1 0 -26 14
-55 31 -29 18 -69 41 -88 51 -51 29 -380 217 -448 256 -31 18 -65 36 -74 39
-10 3 -18 9 -18 14 0 5 -4 9 -9 9 -8 0 -457 251 -501 280 -8 5 -37 22 -65 37
-27 15 -58 32 -67 38 -9 5 -56 33 -104 60 -139 79 -151 86 -299 170 -77 44
-149 86 -160 92 -11 7 -28 16 -37 19 -10 3 -18 9 -19 13 -5 29 -16 2241 -11
2241 2 0 72 -39 155 -86z"/>
</g>
</svg>
