<?xml version="1.0" encoding="utf-8"?>
<!-- Generator: Adobe Illustrator 24.0.1, SVG Export Plug-In . SVG Version: 6.00 Build 0)  -->
<svg version="1.1"
	 id="svg59" inkscape:version="0.92.2 5c3e80d, 2017-08-06" sodipodi:docname="isogram-logo-2-dark.svg" xmlns:cc="http://creativecommons.org/ns#" xmlns:dc="http://purl.org/dc/elements/1.1/" xmlns:inkscape="http://www.inkscape.org/namespaces/inkscape" xmlns:rdf="http://www.w3.org/1999/02/22-rdf-syntax-ns#" xmlns:sodipodi="http://sodipodi.sourceforge.net/DTD/sodipodi-0.dtd" xmlns:svg="http://www.w3.org/2000/svg"
	 xmlns="http://www.w3.org/2000/svg" xmlns:xlink="http://www.w3.org/1999/xlink" x="0px" y="0px" viewBox="0 0 716 486.1"
	 style="enable-background:new 0 0 716 486.1;" xml:space="preserve">
<style type="text/css">
	.st0{fill:none;stroke:#FFFFFF;stroke-width:4;stroke-miterlimit:18.427;}
	.st1{fill:none;stroke:#FFFFFF;stroke-width:8;stroke-miterlimit:18.427;}
	.st2{fill:#FFFFFF;}
</style>
<sodipodi:namedview  bordercolor="#666666" borderopacity="1.0" fit-margin-bottom="25" fit-margin-left="25" fit-margin-right="25" fit-margin-top="25" id="base" inkscape:current-layer="layer2" inkscape:cx="461.62029" inkscape:cy="291.73646" inkscape:document-units="mm" inkscape:pageopacity="0.0" inkscape:pageshadow="2" inkscape:window-height="1114" inkscape:window-maximized="0" inkscape:window-width="1920" inkscape:window-x="9" inkscape:window-y="74" inkscape:zoom="1" pagecolor="#ffffff" showgrid="false">
	</sodipodi:namedview>
<g id="layer1" transform="translate(25,-150.52725)" inkscape:groupmode="layer" inkscape:label="Layer 1">
	<g id="g29" transform="matrix(0.6023108,0,0,0.6023108,38.672133,166.74658)">
		
			<path id="path4568-6-1" inkscape:flatsided="true" inkscape:randomized="0" inkscape:rounded="0" sodipodi:arg1="1.0471976" sodipodi:arg2="1.5707963" sodipodi:cx="90.646446" sodipodi:cy="56.67511" sodipodi:r1="15.210723" sodipodi:r2="13.172871" sodipodi:sides="6" sodipodi:type="star" class="st0" d="
			M488.8,373.9l-101.1-57.6l-0.6-116.3l100.4-58.7l101.1,57.6l0.6,116.3L488.8,373.9z"/>
		
			<path id="path4568-6-1_1_" inkscape:flatsided="true" inkscape:randomized="0" inkscape:rounded="0" sodipodi:arg1="1.0471976" sodipodi:arg2="1.5707963" sodipodi:cx="90.646446" sodipodi:cy="56.67511" sodipodi:r1="15.210723" sodipodi:r2="13.172871" sodipodi:sides="6" sodipodi:type="star" class="st1" d="
			M489.6,439L332,349.1l-1-181.4l156.6-91.6L645.3,166l1,181.4L489.6,439z"/>
		<line class="st0" x1="387.1" y1="199.9" x2="488.7" y2="257.5"/>
		<line class="st0" x1="588.6" y1="198.8" x2="488.7" y2="257.5"/>
		<line class="st0" x1="488.8" y1="373.9" x2="488.7" y2="257.5"/>
	</g>
	<g id="flowRoot225">
	</g>
	<g id="text235" transform="translate(0,1.0583333)">
		<path id="path4525" inkscape:connector-curvature="0" class="st2" d="M78.1,559.7c-7.4-0.1-13.3-2.4-17.6-6.8
			c-4.3-4.3-6.5-10.5-6.5-18.7v-6.9c0-2.5-0.5-4.4-1.4-5.9c-0.9-1.5-2.3-2.2-3.9-2.2h-2.8V508h2.8c1.7,0,3-0.7,3.9-2.2
			c0.9-1.5,1.4-3.4,1.4-5.9v-6.7c0-8.2,2.2-14.4,6.5-18.7c4.3-4.4,10.2-6.7,17.6-6.9H82V479h-3.8c-7.6,0.3-11.4,4.4-11.4,12.2v7.4
			c0,4.6-0.7,8-2.2,10.3c-1.5,2.3-3.6,3.8-6.5,4.5v0.4c5.8,1.5,8.6,6.5,8.6,14.8v7.4c0,8,3.8,12.1,11.4,12.4H82v11.3L78.1,559.7z"/>
		<path id="path4527" inkscape:connector-curvature="0" class="st2" d="M131.6,481.8c-2,0-3.8-0.7-5.2-2.2c-1.5-1.5-2.2-3.2-2.2-5.4
			c0-2.1,0.7-3.9,2.2-5.2c1.5-1.5,3.2-2.2,5.2-2.2c2.1,0,3.9,0.7,5.4,2.2c1.5,1.4,2.2,3.1,2.2,5.2c0,2.1-0.7,3.9-2.2,5.4
			C135.5,481.1,133.7,481.8,131.6,481.8z M138,534.4h15.4v11H110v-11h15.4v-33.8H110v-11h28V534.4z"/>
		<path id="path4529" inkscape:connector-curvature="0" class="st2" d="M198.8,546.8c-4.7,0-9.1-0.9-13.1-2.6
			c-4-1.8-7.2-4.3-9.6-7.3l8.2-7.4c4.6,4.4,9.7,6.7,15.2,6.7c2.7,0,4.9-0.5,6.7-1.4c1.7-0.9,2.6-2.4,2.6-4.3c0-1.1-0.5-2.1-1.6-3.1
			c-1-1-2.2-1.9-3.6-2.5s-3.4-1.5-6.1-2.6c-0.3-0.1-0.5-0.3-0.8-0.3c-0.1-0.1-0.4-0.1-0.7-0.2c-0.3-0.1-0.5-0.3-0.8-0.3
			c-2.7-1.2-4.7-2-6-2.6c-1.3-0.7-2.9-1.5-4.8-2.6c-1.8-1.2-3.2-2.3-4-3.3c-0.8-1-1.5-2.3-2.2-3.8c-0.7-1.6-1-3.4-1-5.4
			c0-4.7,2-8.5,6.1-11.2c4.1-2.8,9.2-4.2,15.4-4.2c8.7,0,15.6,3,20.9,8.9l-8.4,6.9c-4-3.4-8.3-5-12.9-5c-2.8,0-5.1,0.4-6.9,1.3
			c-1.7,0.8-2.5,2-2.5,3.5c0,0.7,0.3,1.5,0.9,2.2c0.6,0.7,1.6,1.4,3.1,2.2c1.5,0.7,2.7,1.3,3.6,1.7c0.9,0.4,2.6,1,4.8,1.9
			c6.7,2.7,11.2,4.9,13.3,6.6c3.9,3.1,5.8,7,5.9,11.9c0,5.2-2,9.2-5.9,12.1C210.7,545.3,205.4,546.8,198.8,546.8L198.8,546.8z"/>
		<path id="path4531" inkscape:connector-curvature="0" class="st2" d="M265.7,546.8c-8.2,0-14.8-2.6-19.6-7.8
			c-4.8-5.2-7.2-12.4-7.2-21.4c0-9,2.4-16.1,7.2-21.3c4.8-5.3,11.3-8,19.6-8c8.3,0,14.8,2.7,19.6,8c4.8,5.2,7.2,12.4,7.2,21.3
			c0,9-2.4,16.1-7.2,21.3C280.6,544.2,274,546.8,265.7,546.8z M265.7,534.8c4.5,0,8-1.5,10.4-4.6c2.5-3.1,3.7-7.3,3.7-12.6
			c0-5.3-1.2-9.5-3.7-12.7c-2.4-3.1-5.9-4.7-10.4-4.7c-4.4,0-7.9,1.6-10.4,4.7c-2.5,3.1-3.7,7.4-3.7,12.7c0,5.2,1.2,9.4,3.7,12.6
			C257.8,533.2,261.3,534.8,265.7,534.8z"/>
		<path id="path4533" inkscape:connector-curvature="0" class="st2" d="M329.7,567.7l-6.8-10.3c7.8-0.6,13.2-1.8,16.1-3.6
			c3-1.8,4.5-4.8,4.5-8.9v-3.3c-3,3.4-7.3,5.1-13,5.1c-6.9,0-12.4-2.5-16.7-7.5c-4.3-5.1-6.5-12.4-6.5-21.8c0-9,2.2-16.1,6.5-21.3
			c4.3-5.2,10-7.9,16.9-7.9c5.3,0,9.6,1.6,12.8,4.8v-3.5h12.6v50c0,9.5-2,16.4-6,20.7C346.1,564.5,339.3,567,329.7,567.7
			L329.7,567.7z M332.7,534.8c4.7,0,8.3-1.9,10.8-5.7v-23.3c-2.6-3.7-6.2-5.6-10.8-5.6c-4.2,0-7.3,1.5-9.5,4.5
			c-2.2,2.9-3.3,7.2-3.3,12.8c0,5.3,1.1,9.5,3.3,12.7C325.4,533.2,328.6,534.8,332.7,534.8L332.7,534.8z"/>
		<path id="path4535" inkscape:connector-curvature="0" class="st2" d="M414.8,488.3c5,0,9.4,1,13.1,3v20.7h-12.2V500h-1.1
			c-5.8,0-10.2,1.3-13.3,4c-3.1,2.7-4.7,6.7-4.7,12.1v18.3h15.6v11h-40v-11H384v-33.8h-11.8v-11h23.5v9c1.5-3.2,4-5.7,7.5-7.5
			C406.7,489.2,410.6,488.3,414.8,488.3L414.8,488.3z"/>
		<path id="path4537" inkscape:connector-curvature="0" class="st2" d="M463.3,546.8c-6.1,0-11.1-1.6-15-4.8
			c-3.8-3.2-5.7-7.8-5.7-13.8c0-6.1,2.2-10.6,6.6-13.8c4.4-3.1,9.6-4.7,15.7-4.7c5.3,0,10,1,13.9,3v-3.3c0-6.7-3.7-10.1-11-10.1
			c-6.1,0-12,1.9-17.7,5.7l-3.8-10.3c6.8-4.3,14.3-6.5,22.6-6.5c14.8,0,22.2,7,22.2,21v36.2h-12.2v-4.4
			C474.9,544.9,469.7,546.8,463.3,546.8L463.3,546.8z M465.6,535.7c5.2,0,9.7-1.9,13.2-5.6v-7.2c-3.4-1.7-7.3-2.5-11.9-2.5
			c-3.5,0-6.4,0.7-8.7,2c-2.3,1.3-3.4,3.2-3.4,5.8c0,2.3,0.9,4.1,2.8,5.5C459.5,535,462.2,535.7,465.6,535.7L465.6,535.7z"/>
		<path id="path4539" inkscape:connector-curvature="0" class="st2" d="M550,488.3c4.7,0,8.1,1.6,10.3,4.9c2.3,3.2,3.4,8.6,3.4,16.3
			v36h-11.5v-34.1c0-3.9-0.4-6.7-1.1-8.4c-0.7-1.7-2.1-2.6-4-2.6c-1.9,0-3.4,1-4.6,3c-1.1,2-1.6,4.7-1.6,8.2v34h-11.5V511
			c0-7.1-1.7-10.7-5.2-10.7c-2,0-3.7,1-4.9,3c-1.2,2-1.7,4.7-1.7,8.2v34H506v-55.9h10.7v7.4c2-5.8,5.7-8.7,11-8.7
			c2.3,0,4.4,0.8,6.1,2.4c1.8,1.6,3.1,3.5,3.8,5.7C541,491,545.1,488.3,550,488.3L550,488.3z"/>
		<path id="path4541" inkscape:connector-curvature="0" class="st2" d="M584.1,559.7v-11.3h3.8c7.6-0.2,11.4-4.3,11.4-12.4v-7.4
			c0-8.3,2.9-13.2,8.6-14.8v-0.4c-5.8-1.5-8.6-6.5-8.6-14.8v-7.4c0-7.9-3.8-12-11.4-12.2h-3.8v-11.4h3.8c7.5,0.2,13.4,2.5,17.6,6.8
			c4.3,4.3,6.5,10.6,6.5,18.8v6.7c0,2.5,0.5,4.4,1.4,5.9c0.9,1.5,2.3,2.2,3.9,2.2h2.8v11.3h-2.8c-1.7,0-3,0.7-3.9,2.2
			c-0.9,1.5-1.4,3.4-1.4,5.9v6.9c0,8.2-2.2,14.4-6.5,18.7c-4.3,4.4-10.2,6.6-17.6,6.8L584.1,559.7z"/>
	</g>
</g>
</svg>
